HIERARCHY
ROOT hip
{
  OFFSET 0 0 0
  CHANNELS 6 Xposition Yposition Zposition Zrotation Yrotation Xrotation
  JOINT abdomen
  {
    OFFSET 0 20.6881 -0.73152
    CHANNELS 3 Zrotation Xrotation Yrotation
    JOINT chest
    {
      OFFSET 0 11.7043 -0.48768
      CHANNELS 3 Zrotation Xrotation Yrotation
      JOINT neck
      {
        OFFSET 0 22.1894 -2.19456
        CHANNELS 3 Zrotation Xrotation Yrotation
        JOINT head
        {
          OFFSET -0.24384 7.07133 1.2192
          CHANNELS 3 Zrotation Xrotation Yrotation
          JOINT leftEye
          {
            OFFSET 4.14528 8.04674 8.04672
            CHANNELS 3 Zrotation Xrotation Yrotation
            End Site
            {
              OFFSET 1 0 0
            }
          }
          JOINT rightEye
          {
            OFFSET -3.6576 8.04674 8.04672
            CHANNELS 3 Zrotation Xrotation Yrotation
            End Site
            {
              OFFSET 1 0 0
            }
          }
        }
      }
      JOINT rCollar
      {
        OFFSET -2.68224 19.2634 -4.8768
        CHANNELS 3 Zrotation Xrotation Yrotation
        JOINT rShldr
        {
          OFFSET -8.77824 -1.95073 1.46304
          CHANNELS 3 Zrotation Xrotation Yrotation
          JOINT rForeArm
          {
            OFFSET -28.1742 -1.7115 0.48768
            CHANNELS 3 Zrotation Xrotation Yrotation
            JOINT rHand
            {
              OFFSET -22.5879 0.773209 7.07136
              CHANNELS 3 Zrotation Xrotation Yrotation
              JOINT rThumb1
              {
                OFFSET -1.2192 -0.487915 3.41376
                CHANNELS 3 Zrotation Xrotation Yrotation
                JOINT rThumb2
                {
                  OFFSET -3.37035 -0.52449 3.41376
                  CHANNELS 3 Zrotation Xrotation Yrotation
                  End Site
                  {
                    OFFSET -1.78271 -1.18214 1.43049
                  }
                }
              }
              JOINT rIndex1
              {
                OFFSET -7.75947 0.938293 5.60832
                CHANNELS 3 Zrotation Xrotation Yrotation
                JOINT rIndex2
                {
                  OFFSET -2.54057 -0.884171 1.56538
                  CHANNELS 3 Zrotation Xrotation Yrotation
                  End Site
                  {
                    OFFSET -1.62519 -0.234802 1.16502
                  }
                }
              }
              JOINT rMid1
              {
                OFFSET -8.24714 1.18213 3.41376
                CHANNELS 3 Zrotation Xrotation Yrotation
                JOINT rMid2
                {
                  OFFSET -3.10165 -0.590103 1.0647
                  CHANNELS 3 Zrotation Xrotation Yrotation
                  End Site
                  {
                    OFFSET -2.48547 -0.328903 0.83742
                  }
                }
              }
              JOINT rRing1
              {
                OFFSET -8.82822 0.546677 1.51678
                CHANNELS 3 Zrotation Xrotation Yrotation
                JOINT rRing2
                {
                  OFFSET -2.60934 -0.819778 -0.0198488
                  CHANNELS 3 Zrotation Xrotation Yrotation
                  End Site
                  {
                    OFFSET -2.33842 -0.294052 0.168128
                  }
                }
              }
              JOINT rPinky1
              {
                OFFSET -8.27202 -0.0477905 -0.4584
                CHANNELS 3 Zrotation Xrotation Yrotation
                JOINT rPinky2
                {
                  OFFSET -1.82734 -0.647385 -0.700984
                  CHANNELS 3 Zrotation Xrotation Yrotation
                  End Site
                  {
                    OFFSET -1.69225 -0.51767 -0.607171
                  }
                }
              }
            }
          }
        }
      }
      JOINT lCollar
      {
        OFFSET 2.68224 19.2634 -4.8768
        CHANNELS 3 Zrotation Xrotation Yrotation
        JOINT lShldr
        {
          OFFSET 8.77824 -1.95073 1.46304
          CHANNELS 3 Zrotation Xrotation Yrotation
          JOINT lForeArm
          {
            OFFSET 28.1742 -1.7115 0.48768
            CHANNELS 3 Zrotation Xrotation Yrotation
            JOINT lHand
            {
              OFFSET 22.5879 0.773209 7.07136
              CHANNELS 3 Zrotation Xrotation Yrotation
              JOINT lThumb1
              {
                OFFSET 1.2192 -0.487915 3.41376
                CHANNELS 3 Zrotation Xrotation Yrotation
                JOINT lThumb2
                {
                  OFFSET 3.37035 -0.52449 3.41376
                  CHANNELS 3 Zrotation Xrotation Yrotation
                  End Site
                  {
                    OFFSET 1.78271 -1.18214 1.43049
                  }
                }
              }
              JOINT lIndex1
              {
                OFFSET 7.75947 0.938293 5.60832
                CHANNELS 3 Zrotation Xrotation Yrotation
                JOINT lIndex2
                {
                  OFFSET 2.54057 -0.884171 1.56538
                  CHANNELS 3 Zrotation Xrotation Yrotation
                  End Site
                  {
                    OFFSET 1.62519 -0.234802 1.16502
                  }
                }
              }
              JOINT lMid1
              {
                OFFSET 8.24714 1.18213 3.41376
                CHANNELS 3 Zrotation Xrotation Yrotation
                JOINT lMid2
                {
                  OFFSET 3.10165 -0.590103 1.0647
                  CHANNELS 3 Zrotation Xrotation Yrotation
                  End Site
                  {
                    OFFSET 2.48547 -0.328903 0.83742
                  }
                }
              }
              JOINT lRing1
              {
                OFFSET 8.82822 0.546677 1.51678
                CHANNELS 3 Zrotation Xrotation Yrotation
                JOINT lRing2
                {
                  OFFSET 2.60934 -0.819778 -0.0198488
                  CHANNELS 3 Zrotation Xrotation Yrotation
                  End Site
                  {
                    OFFSET 2.33842 -0.294052 0.168128
                  }
                }
              }
              JOINT lPinky1
              {
                OFFSET 8.27202 -0.0477905 -0.4584
                CHANNELS 3 Zrotation Xrotation Yrotation
                JOINT lPinky2
                {
                  OFFSET 1.82734 -0.647385 -0.700984
                  CHANNELS 3 Zrotation Xrotation Yrotation
                  End Site
                  {
                    OFFSET 1.69225 -0.51767 -0.607171
                  }
                }
              }
            }
          }
        }
      }
    }
  }
  JOINT rButtock
  {
    OFFSET -8.77824 4.35084 1.2192
    CHANNELS 3 Zrotation Xrotation Yrotation
    JOINT rThigh
    {
      OFFSET 0 -1.70687 -2.19456
      CHANNELS 3 Zrotation Xrotation Yrotation
      JOINT rShin
      {
        OFFSET 0 -36.8199 0.73152
        CHANNELS 3 Zrotation Xrotation Yrotation
        JOINT rFoot
        {
          OFFSET 0.73152 -45.1104 -5.12064
          CHANNELS 3 Zrotation Xrotation Yrotation
          End Site
          {
            OFFSET -1.1221 -3.69964 12.103
          }
        }
      }
    }
  }
  JOINT lButtock
  {
    OFFSET 8.77824 4.35084 1.2192
    CHANNELS 3 Zrotation Xrotation Yrotation
    JOINT lThigh
    {
      OFFSET 0 -1.70687 -2.19456
      CHANNELS 3 Zrotation Xrotation Yrotation
      JOINT lShin
      {
        OFFSET 0 -36.8199 0.73152
        CHANNELS 3 Zrotation Xrotation Yrotation
        JOINT lFoot
        {
          OFFSET -0.73152 -45.1104 -5.12064
          CHANNELS 3 Zrotation Xrotation Yrotation
          End Site
          {
            OFFSET 1.1221 -3.69964 12.103
          }
        }
      }
    }
  }
}
MOTION
Frames:	4
Frame Time:	0.00833333
-40.0838 64.4986 -121.46601 -4.6041994 -5.295299 2.656 0.9438729 10.4384 -6.28825 4.59514 -9.067289 -1.4692699 -0.96627706 9.519871 3.32947 -0.2565961 -16.4661 6.60679 0.0 0.0 0.0 0.0 0.0 0.0 1.01878995e-13 -3.9878498e-14 -1.19507e-13 103.133995 41.053604 -50.7153 -27.7479 -41.4935 86.707306 -5.581369 -53.5955 -10.9985 -8.5638704e-11 -5.93523e-10 -3.67474e-10 -1.29246e-10 -1.05971e-09 -6.39749e-10 -8.56292e-11 -5.93522e-10 -3.67487e-10 7.730911 5.47488 0.41731405 -8.56375e-11 -5.93533e-10 -3.67471e-10 2.90554 0.965183 0.102902 -8.5636e-11 -5.93529e-10 -3.67475e-10 10.2786 0.73180103 0.025912303 -8.56437e-11 -5.93529e-10 -3.6746e-10 2.2216702 -0.733487 -0.20892 1.01862e-13 -3.98783e-14 -1.1963301e-13 -57.0372 0.1989587 -74.1577 8.35598 -3.20085 -14.7518 6.21258 55.467102 -11.7858 -1.84105e-09 1.45638e-08 1.77182e-11 -3.16625e-09 2.48726e-08 1.1166001e-10 -1.8410599e-09 1.45638e-08 1.7711499e-11 -7.730911 5.47488 -0.41731405 -1.8410599e-09 1.45638e-08 1.7709001e-11 -2.90554 0.965183 -0.102902 -1.8410599e-09 1.45638e-08 1.77078e-11 -10.2786 0.73180103 -0.025912303 -1.84104e-09 1.45638e-08 1.77037e-11 -2.2216702 -0.733487 0.20892 -2.03217e-16 8e-44 -3.88251e-19 -26.024403 -48.711002 -21.8076 -9.253502 83.9925 9.6288 -7.01493 -26.725098 -9.761328 2.03217e-16 8e-44 3.88251e-19 37.74179 -46.559902 23.9757 8.320846 83.5424 -8.877539 2.82747 -32.064796 3.1596098
-40.1124 64.5104 -121.687996 -4.8236 -4.8134003 2.8009999 1.0204201 10.6152 -6.32527 4.7737904 -9.16232 -1.4587901 -1.11371 9.479149 3.09796 -0.19424802 -16.8367 6.18596 0.0 0.0 0.0 0.0 0.0 0.0 1.33031e-13 -4.6544e-14 -9.8954e-14 101.98701 41.8964 -48.122 -27.161396 -43.6972 90.690895 -3.5050097 -46.003 -8.33463 -5.95808e-10 1.88268e-09 -7.7748896e-10 -9.98868e-10 3.07699e-09 -1.36769e-09 -5.95799e-10 1.88268e-09 -7.775e-10 7.730911 5.47488 0.41731405 -5.95808e-10 1.88268e-09 -7.77483e-10 2.90554 0.965183 0.102902 -5.95805e-10 1.88268e-09 -7.7748796e-10 10.2786 0.73180103 0.025912303 -5.95814e-10 1.88269e-09 -7.7747303e-10 2.2216702 -0.733487 -0.20892 1.3293701e-13 -4.65441e-14 -9.9151596e-14 -58.146496 -0.008862171 -75.25749 7.6582103 -2.83771 -13.474601 7.4749074 58.58309 -13.292896 -1.8059001e-09 1.57973e-08 -6.6803996e-10 -3.13827e-09 2.72207e-08 -1.0641901e-09 -1.80592e-09 1.57973e-08 -6.6805e-10 -7.730911 5.47488 -0.41731405 -1.80591e-09 1.57973e-08 -6.68053e-10 -2.90554 0.965183 -0.102902 -1.80592e-09 1.57973e-08 -6.68053e-10 -10.2786 0.73180103 -0.025912303 -1.8059001e-09 1.57973e-08 -6.6806e-10 -2.2216702 -0.733487 0.20892 -2.03217e-16 8e-44 -3.88251e-19 -26.555 -48.458397 -22.754704 -8.981039 83.8364 9.356553 -7.0252295 -26.6767 -9.778279 2.03217e-16 8e-44 3.88251e-19 37.150402 -47.415497 22.901297 8.173137 83.431595 -8.7182255 2.8999202 -31.7896 3.29379
-40.097603 64.621 -121.937004 -4.9297004 -4.0043 2.9739997 0.90568393 10.7259 -6.1068196 4.8469105 -9.21257 -1.3892299 -1.2747499 9.480349 2.6967397 0.40580395 -17.3217 5.51245 0.0 0.0 0.0 0.0 0.0 0.0 5.8749704e-14 -6.9386e-14 6.3840102e-15 100.167 44.0301 -43.7573 -26.0218 -46.289402 96.0585 -1.9241601 -36.5632 -5.9486704 -1.01756e-09 6.17437e-09 -1.40518e-09 -1.7184e-09 1.02788995e-08 -2.46005e-09 -1.01755e-09 6.17438e-09 -1.4051901e-09 7.730911 5.47488 0.41731405 -1.01756e-09 6.17437e-09 -1.40518e-09 2.90554 0.965183 0.102902 -1.01755e-09 6.17438e-09 -1.40518e-09 10.2786 0.73180103 0.025912303 -1.0175699e-09 6.1743903e-09 -1.40517e-09 2.2216702 -0.733487 -0.20892 5.84828e-14 -6.93859e-14 6.06138e-15 -59.526196 0.1260376 -76.681496 6.8865204 -2.4572103 -12.0745 9.337849 62.183895 -15.435797 -1.06291e-09 1.13452e-08 -1.41944e-09 -1.89852e-09 1.98945e-08 -2.38082e-09 -1.06292e-09 1.13452e-08 -1.41945e-09 -7.730911 5.47488 -0.41731405 -1.06291e-09 1.13452e-08 -1.41945e-09 -2.90554 0.965183 -0.102902 -1.06292e-09 1.13452e-08 -1.41945e-09 -10.2786 0.73180103 -0.025912303 -1.06291e-09 1.13452e-08 -1.41946e-09 -2.2216702 -0.733487 0.20892 -2.03217e-16 8e-44 -3.88251e-19 -26.966604 -48.2732 -23.552795 -8.547279 83.5616 8.921945 -7.06217 -26.5226 -9.85836 2.03217e-16 8e-44 3.88251e-19 36.337902 -48.3163 21.608997 7.7930717 83.1443 -8.32607 2.9531798 -31.421099 3.4070299
-40.026703 64.9384 -122.19 -4.8353004 -3.2745004 3.1610005 0.605642 10.8293 -5.6115403 4.7498503 -9.54544 -1.2493801 -1.47932 9.447591 2.1434102 1.1150502 -17.2012 4.5505004 0.0 0.0 0.0 0.0 0.0 0.0 -6.05083e-14 -1.13712e-13 7.28192e-14 95.44889 47.5778 -35.857002 -24.400202 -48.941902 102.032 -1.3981401 -31.221601 -4.90739 -1.1443799e-09 4.63541e-09 -1.20396e-09 -1.94744e-09 7.64135e-09 -2.11108e-09 -1.1443799e-09 4.63542e-09 -1.2039699e-09 7.730911 5.47488 0.41731405 -1.1443799e-09 4.63542e-09 -1.2039699e-09 2.90554 0.965183 0.102902 -1.14437e-09 4.63541e-09 -1.2039699e-09 10.2786 0.73180103 0.025912303 -1.14439e-09 4.63543e-09 -1.20396e-09 2.2216702 -0.733487 -0.20892 -6.078e-14 -1.13712e-13 7.24966e-14 -57.636898 1.91955 -77.7641 6.45561 -2.23255 -11.3285 10.5004015 63.9429 -16.7293 -4.66841e-10 7.46628e-09 -1.9465e-09 -9.01747e-10 1.34525e-08 -3.31338e-09 -4.66843e-10 7.46627e-09 -1.94651e-09 -7.730911 5.47488 -0.41731405 -4.6683996e-10 7.46627e-09 -1.94651e-09 -2.90554 0.965183 -0.102902 -4.66845e-10 7.46627e-09 -1.94651e-09 -10.2786 0.73180103 -0.025912303 -4.66835e-10 7.46628e-09 -1.9465198e-09 -2.2216702 -0.733487 0.20892 -2.03217e-16 8e-44 -3.88251e-19 -27.261297 -47.954998 -24.0933 -7.7509613 82.9804 8.120945 -7.0192094 -26.2203 -9.847819 2.03217e-16 8e-44 3.88251e-19 34.7329 -49.0489 19.630503 7.015538 82.48141 -7.5418153 3.2225904 -30.836897 3.8733103
